<svg width="14" height="14" viewBox="0 0 14 14" fill="none" xmlns="http://www.w3.org/2000/svg">
<path d="M12.6871 3.18103H0.493088C0.380421 3.18103 0.285088 3.2222 0.207088 3.30453C0.129088 3.38686 0.0900879 3.48436 0.0900879 3.59703V10.903C0.0900879 11.0157 0.129088 11.111 0.207088 11.189C0.285088 11.267 0.380421 11.306 0.493088 11.306H12.6871C12.7998 11.306 12.8951 11.267 12.9731 11.189C13.0511 11.111 13.0901 11.0157 13.0901 10.903V3.59703C13.0901 3.48436 13.0511 3.38686 12.9731 3.30453C12.8951 3.2222 12.7998 3.18103 12.6871 3.18103ZM11.3871 4.00003L6.59009 6.97703L1.79309 4.00003H11.3871ZM0.909088 10.5V4.40303L6.59009 7.92603L12.2841 4.40303V10.5H0.909088Z" fill="white"/>
</svg>
