<svg width="14" height="14" viewBox="0 0 14 14" fill="none" xmlns="http://www.w3.org/2000/svg">
<path d="M10.34 0.75H3.84001C3.72735 0.75 3.63201 0.789 3.55401 0.867C3.47601 0.945 3.43701 1.04033 3.43701 1.153V13.347C3.43701 13.4597 3.47601 13.555 3.55401 13.633C3.63201 13.711 3.72735 13.75 3.84001 13.75H10.34C10.4527 13.75 10.548 13.711 10.626 13.633C10.704 13.555 10.743 13.4597 10.743 13.347V1.153C10.743 1.04033 10.704 0.945 10.626 0.867C10.548 0.789 10.4527 0.75 10.34 0.75ZM9.93701 12.944H4.24301V1.556H9.93701V12.944ZM7.29801 11.306H6.88201C6.76935 11.306 6.67401 11.3472 6.59601 11.4295C6.51801 11.5118 6.47901 11.6093 6.47901 11.722C6.47901 11.8347 6.51801 11.93 6.59601 12.008C6.67401 12.086 6.76935 12.125 6.88201 12.125H7.29801C7.41068 12.125 7.50601 12.086 7.58401 12.008C7.66201 11.93 7.70101 11.8347 7.70101 11.722C7.70101 11.6093 7.66201 11.5118 7.58401 11.4295C7.50601 11.3472 7.41068 11.306 7.29801 11.306ZM5.67301 3.181H8.50701C8.61968 3.181 8.71718 3.142 8.79951 3.064C8.88184 2.986 8.92301 2.89067 8.92301 2.778C8.92301 2.66533 8.88184 2.57 8.79951 2.492C8.71718 2.414 8.61968 2.375 8.50701 2.375H5.67301C5.56035 2.375 5.46285 2.414 5.38051 2.492C5.29818 2.57 5.25701 2.66533 5.25701 2.778C5.25701 2.89067 5.29818 2.986 5.38051 3.064C5.46285 3.142 5.56035 3.181 5.67301 3.181Z" fill="white"/>
</svg>
