<svg width="12" height="12" viewBox="0 0 12 12" fill="none" xmlns="http://www.w3.org/2000/svg">
<path d="M6.99666 8.19803L4.01466 5.21603L5.20466 4.02603L6.99666 5.80403L10.2167 2.58403C9.722 1.88403 9.09666 1.3287 8.34066 0.918031C7.55666 0.507364 6.71666 0.302031 5.82066 0.302031C4.84066 0.302031 3.93533 0.544698 3.10466 1.03003C2.28333 1.50603 1.63466 2.1547 1.15866 2.97603C0.673331 3.8067 0.430664 4.71203 0.430664 5.69203C0.430664 6.67203 0.673331 7.57736 1.15866 8.40803C1.63466 9.22936 2.28333 9.87803 3.10466 10.354C3.93533 10.8394 4.83833 11.082 5.81366 11.082C6.789 11.082 7.69666 10.8394 8.53666 10.354C9.34866 9.87803 9.99266 9.22936 10.4687 8.40803C10.9633 7.57736 11.2107 6.67203 11.2107 5.69203C11.2107 5.16936 11.1407 4.67003 11.0007 4.19403L6.99666 8.19803Z" fill="#555555"/>
</svg>
